<?xml version="1.0" standalone="no"?><!DOCTYPE svg PUBLIC "-//W3C//DTD SVG 1.1//EN" "http://www.w3.org/Graphics/SVG/1.1/DTD/svg11.dtd"><svg t="1711721082090" class="icon" viewBox="0 0 1024 1024" version="1.1" xmlns="http://www.w3.org/2000/svg" p-id="6753" xmlns:xlink="http://www.w3.org/1999/xlink" width="200" height="200"><path d="M512 512m-405.333333 0a405.333333 405.333333 0 1 0 810.666666 0 405.333333 405.333333 0 1 0-810.666666 0Z" fill="#FF9800" p-id="6754"></path><path d="M512 512m-330.666667 0a330.666667 330.666667 0 1 0 661.333334 0 330.666667 330.666667 0 1 0-661.333334 0Z" fill="#FFB300" p-id="6755"></path><path d="M373.12 176.853333a362.666667 362.666667 0 1 0 474.026667 196.266667 362.666667 362.666667 0 0 0-474.026667-196.266667z m60.586667 25.173334a317.226667 317.226667 0 0 1 156.8 0 21.333333 21.333333 0 0 1 14.72 29.013333l-89.813334 233.386667-96.64-233.386667a21.333333 21.333333 0 0 1 14.933334-29.013333z m42.666666 278.613333L247.466667 379.306667a21.333333 21.333333 0 0 1-10.026667-30.933334 315.093333 315.093333 0 0 1 110.72-110.933333 21.333333 21.333333 0 0 1 31.146667 10.026667z m-11.52 27.946667l-233.813333 96.64a21.333333 21.333333 0 0 1-29.013333-14.933334 317.226667 317.226667 0 0 1 0-156.8 21.333333 21.333333 0 0 1 29.013333-14.72z m125.866667 313.386666a317.226667 317.226667 0 0 1-156.8 0 21.333333 21.333333 0 0 1-14.72-29.013333l89.813333-233.386667 96.64 233.386667a21.333333 21.333333 0 0 1-15.36 29.013333z m-42.666667-278.613333l228.48 101.333333a21.333333 21.333333 0 0 1 10.026667 30.933334 315.093333 315.093333 0 0 1-110.72 110.933333 21.333333 21.333333 0 0 1-31.146667-10.026667z m11.52-27.946667l233.386667-96.64a21.333333 21.333333 0 0 1 29.013333 14.933334 317.226667 317.226667 0 0 1 0 156.8 21.333333 21.333333 0 0 1-29.013333 14.72z m216.96-136.106666l-233.173333 96.64 101.333333-228.48a21.333333 21.333333 0 0 1 30.933334-10.026667 315.093333 315.093333 0 0 1 110.933333 110.72 21.333333 21.333333 0 0 1-10.026667 31.146667zM247.466667 644.693333l233.173333-96.64-101.333333 228.48a21.333333 21.333333 0 0 1-30.933334 10.026667 315.093333 315.093333 0 0 1-110.933333-110.72 21.333333 21.333333 0 0 1 10.026667-31.146667z" fill="#FFD675" p-id="6756"></path></svg>