<?xml version="1.0" standalone="no"?><!DOCTYPE svg PUBLIC "-//W3C//DTD SVG 1.1//EN" "http://www.w3.org/Graphics/SVG/1.1/DTD/svg11.dtd"><svg t="1711896720232" class="icon" viewBox="0 0 1024 1024" version="1.1" xmlns="http://www.w3.org/2000/svg" p-id="5830" xmlns:xlink="http://www.w3.org/1999/xlink" width="200" height="200"><path d="M24.1 604C24 822.2 200.8 999 418.9 999.1c218.1 0.1 395-176.7 395.1-394.9v-0.2c0-218.1-176.8-395-394.9-395s-395 176.8-395 395z" fill="#F37321" p-id="5831"></path><path d="M440 185.8c-11.6-79-79-139.4-160.3-139.4-13.9 0-23.2 9.3-23.2 23.2s9.3 23.2 23.2 23.2c55.8 0 104.6 39.5 113.8 95.3C175.1 199.7 0.8 381 0.8 604 0.8 834 189 1022.2 419 1022.2S837.3 834 837.3 604c0-223-176.6-406.6-397.3-418.2z m-20.9 790C214.6 975.8 47.3 808.5 47.3 604S214.6 232.3 419 232.3 790.8 399.6 790.8 604 623.5 975.8 419.1 975.8z" fill="#014463" p-id="5832"></path><path d="M644.4 308.9c48.8 62.7 76.7 139.4 76.7 225.4 0 204.5-167.3 371.7-371.7 371.7-86 0-162.6-27.9-225.4-76.7 67.4 88.3 174.3 146.4 295.1 146.4 204.5 0 371.7-167.3 371.7-371.7 0-120.8-58.1-227.7-146.4-295.1z" fill="#EB5C24" p-id="5833"></path><path d="M604.9 999c-209.1 0-381-162.6-395-369.4V604h790v25.6C986 836.4 814 999 604.9 999z" fill="#FFEDA9" p-id="5834"></path><path d="M604.9 1022.2c-230 0-418.2-188.2-418.2-418.2 0-13.9 9.3-23.2 23.2-23.2h790c13.9 0 23.2 9.3 23.2 23.2 0.1 230-188.1 418.2-418.2 418.2z m-371.7-395c11.6 195.2 174.3 348.5 371.7 348.5S965 822.4 976.6 627.2H233.2z" fill="#014463" p-id="5835"></path><path d="M419.1 209v-23.2c0-41.8 16.3-86 46.5-116.2s72-46.5 113.8-46.5h23.2l2.3 23.2c0 41.8-16.3 86-46.5 116.2-30.2 30.2-69.7 46.5-113.8 46.5h-25.5z" fill="#90C962" p-id="5836"></path><path d="M444.6 232.3c-9.3 0-18.6 0-27.9-2.3s-18.6-9.3-18.6-18.6c-9.3-55.8 11.6-116.2 51.1-155.7C491 13.9 549.1-4.7 604.9 4.6c9.3 2.3 18.6 9.3 18.6 18.6 9.3 55.8-11.6 116.2-51.1 155.7-32.5 34.8-81.3 53.4-127.8 53.4z m-2.3-46.5c37.2 0 72-13.9 99.9-39.5 25.6-27.9 39.5-62.7 39.5-99.9-37.2 0-72 13.9-99.9 39.5s-39.5 62.7-39.5 99.9z" fill="#014463" p-id="5837"></path><path d="M444.6 162.6c34.9 0 69.7-13.9 97.6-39.5 20.9-20.9 34.9-46.5 39.5-74.3h2.3c0 37.2-13.9 72-39.5 99.9-30.2 23.2-65.1 37.2-102.2 37.2 0-7.1 0-16.4 2.3-23.3z" fill="#71B956" p-id="5838"></path><path d="M927.9 627.2H660.7l171.9 171.9c9.3 9.3 27.9 9.3 34.9-2.3 34.8-48.7 58.1-106.8 60.4-169.6zM581.7 901.4V659.8L409.8 831.7c-9.3 9.3-9.3 27.9 2.3 34.9 41.8 30.2 88.3 51.1 141.7 58.1 14 2.3 27.9-9.4 27.9-23.3z m46.5-241.6v241.6c0 13.9 13.9 25.6 27.9 23.2 51.1-9.3 99.9-27.9 141.7-58.1 11.6-9.3 13.9-25.6 2.3-34.9L628.2 659.8z m-79-32.6H282c4.6 62.7 25.6 120.8 60.4 167.3 9.3 11.6 25.6 13.9 34.9 2.3l171.9-169.6z" fill="#F79433" p-id="5839"></path><path d="M186.7 434.4c-4.6 0-11.6-2.3-13.9-4.6-9.3-9.3-11.6-23.2-2.3-32.5 32.5-39.5 76.7-72 125.5-92.9 11.6-4.6 25.6 0 30.2 11.6 4.6 11.6 0 25.6-11.6 30.2-41.8 16.3-79 44.1-106.9 79-7 6.9-14 9.2-21 9.2zM124 557.5h-4.6c-11.6-2.3-20.9-16.3-16.3-27.9 4.6-16.3 9.3-34.9 16.3-51.1 4.6-11.6 18.6-16.3 30.2-11.6 11.6 4.6 18.6 18.6 11.6 30.2-7 13.9-11.6 27.9-13.9 44.1-2.4 9.4-11.7 16.3-23.3 16.3z" fill="#F79548" p-id="5840"></path><path d="M581.7 418.1c0 12.8 10.4 23.2 23.2 23.2s23.2-10.4 23.2-23.2c0-12.8-10.4-23.2-23.2-23.2s-23.2 10.4-23.2 23.2zM512 487.8c0 12.8 10.4 23.2 23.2 23.2 12.8 0 23.2-10.4 23.2-23.2 0-12.8-10.4-23.2-23.2-23.2-12.8 0-23.2 10.4-23.2 23.2zM442.3 418.1c0 12.8 10.4 23.2 23.2 23.2 12.8 0 23.2-10.4 23.2-23.2 0-12.8-10.4-23.2-23.2-23.2-12.8 0-23.2 10.4-23.2 23.2z" fill="#EB5C24" p-id="5841"></path></svg>